<svg width="20" height="20" viewBox="0 0 20 20" fill="none" xmlns="http://www.w3.org/2000/svg">
<path d="M13.7394 12.4267C15.6452 12.3931 16.0646 9.77135 14.2663 9.14697L12.1898 11.3989C12.4489 12.009 13.0598 12.4267 13.7394 12.4267Z" fill="white"/>
<path d="M19.8893 9.02404C19.6224 7.42245 18.872 6.18628 17.7069 5.41441C17.1643 6.00342 15.6692 7.62431 15.1048 8.23653C16.0127 8.72858 16.5939 9.6814 16.5939 10.7444C16.6002 13.2082 13.6271 14.5166 11.8153 12.8529C11.6426 13.2351 11.4003 13.5869 11.095 13.8921C9.88523 15.2037 6.13784 15.5207 4.5382 15.4742C4.49146 13.8705 4.80982 10.1249 6.12029 8.91735C6.78894 8.24904 7.66126 7.90629 8.53943 7.88948C9.50047 7.00033 10.8332 5.76709 11.7903 4.88133C10.4608 5.23166 8.51352 6.15916 7.91959 5.28349C7.64164 4.62749 8.90528 3.10317 7.90826 1.82393C7.09117 0.797987 5.26247 0.990701 4.22906 1.71958C-0.802534 5.19356 -1.47533 12.8262 2.91719 17.0722C8.29443 22.4908 17.6745 20.036 19.7353 12.6931C19.8472 12.2309 20.1675 10.7159 19.8893 9.02404V9.02404Z" fill="white"/>
<path d="M11.095 8.91722C11.4218 9.24395 11.6762 9.62344 11.8505 10.0365C12.516 9.31574 16.03 5.50332 16.6134 4.87105L19.7334 1.48731C20.0742 1.11759 20.0832 0.570443 19.7541 0.24098C19.4242 -0.0884824 18.8763 -0.0791026 18.5066 0.262866L13.9437 4.4857C12.953 5.40229 10.9824 7.22665 9.97144 8.16216C10.3802 8.33334 10.7628 8.58503 11.095 8.91722V8.91722Z" fill="white"/>
<path d="M9.64017 9.29822C8.75 8.86504 7.67125 9.02594 6.94936 9.74532C6.20376 10.4046 5.78042 12.9134 5.73743 14.2742C7.1021 14.2298 9.60492 13.8089 10.2659 13.0622C10.7091 12.619 10.9529 12.0301 10.9529 11.404C10.9528 10.777 10.7087 10.188 10.2659 9.74571V9.74532C10.0783 9.55734 9.86646 9.40843 9.64017 9.29822V9.29822Z" fill="white"/>
</svg>
