<svg width="20" height="20" viewBox="0 0 20 20" fill="none" xmlns="http://www.w3.org/2000/svg">
<path d="M0 8.96985C0.0837521 8.11558 0.259632 7.3072 0.527638 6.54472C0.795645 5.78291 1.16415 5.067 1.63317 4.39698C2.21943 5 2.70955 5.69916 3.10352 6.49447C3.49682 7.29045 3.75209 8.11558 3.86935 8.96985H0ZM16.1307 8.96985C16.2479 8.11558 16.4992 7.29481 16.8844 6.50754C17.2697 5.72027 17.7638 5.02512 18.3668 4.42211C18.8358 5.07538 19.2044 5.78727 19.4724 6.55779C19.7404 7.32831 19.9162 8.13233 20 8.96985H16.1307ZM1.63317 15.5779C1.16415 14.9246 0.795645 14.2171 0.527638 13.4553C0.259632 12.6928 0.0837521 11.8844 0 11.0301H3.86935C3.75209 11.8844 3.49682 12.7052 3.10352 13.4925C2.70955 14.2797 2.21943 14.9749 1.63317 15.5779ZM18.3668 15.5779C17.7638 14.9749 17.2697 14.2797 16.8844 13.4925C16.4992 12.7052 16.2479 11.8844 16.1307 11.0301H20C19.9162 11.8677 19.7404 12.6717 19.4724 13.4422C19.2044 14.2127 18.8358 14.9246 18.3668 15.5779ZM5.90452 8.96985C5.77052 7.76382 5.44389 6.64992 4.92462 5.62814C4.40536 4.60637 3.72697 3.68509 2.88945 2.86432C3.69347 2.0603 4.61072 1.41541 5.64121 0.929648C6.67102 0.443886 7.78057 0.134003 8.96985 0V8.96985H5.90452ZM11.0301 8.96985V0C12.2194 0.134003 13.329 0.443886 14.3588 0.929648C15.3893 1.41541 16.3065 2.0603 17.1106 2.86432C16.2563 3.66834 15.5739 4.58526 15.0633 5.61507C14.5521 6.64556 14.2295 7.76382 14.0955 8.96985H11.0301ZM8.96985 20C7.76382 19.866 6.64992 19.5518 5.62814 19.0573C4.60637 18.5635 3.69347 17.9146 2.88945 17.1106C3.74372 16.3065 4.42647 15.3936 4.93769 14.3719C5.44824 13.3501 5.77052 12.2362 5.90452 11.0301H8.96985V20ZM11.0301 20V11.0301H14.0955C14.2295 12.2362 14.5521 13.3541 15.0633 14.3839C15.5739 15.4144 16.2563 16.3317 17.1106 17.1357C16.3065 17.9397 15.3893 18.5846 14.3588 19.0704C13.329 19.5561 12.2194 19.866 11.0301 20Z" fill="white"/>
</svg>
