<svg width="20" height="20" viewBox="0 0 20 20" fill="none" xmlns="http://www.w3.org/2000/svg">
<path d="M1 19.55C0.716667 19.55 0.479333 19.454 0.288 19.262C0.0960001 19.0707 0 18.8333 0 18.55C0 18.2667 0.0960001 18.0293 0.288 17.838C0.479333 17.646 0.716667 17.55 1 17.55H2V8.55H1.35C0.966667 8.55 0.646 8.41667 0.388 8.15C0.129333 7.88333 0 7.55833 0 7.175C0 6.99167 0.0543334 6.80833 0.163 6.625C0.271 6.44167 0.391667 6.3 0.525 6.2L8.85 0.35C9.03333 0.216667 9.221 0.125 9.413 0.075C9.60433 0.025 9.8 0 10 0C10.2 0 10.396 0.025 10.588 0.075C10.7793 0.125 10.9667 0.216667 11.15 0.35L19.475 6.2C19.6083 6.3 19.729 6.44567 19.837 6.637C19.9457 6.829 20 7.01667 20 7.2C20 7.58333 19.871 7.90433 19.613 8.163C19.3543 8.421 19.0333 8.55 18.65 8.55H18V17.55H19C19.2833 17.55 19.5207 17.646 19.712 17.838C19.904 18.0293 20 18.2667 20 18.55C20 18.8333 19.904 19.0707 19.712 19.262C19.5207 19.454 19.2833 19.55 19 19.55H1ZM7 15.55C7.28333 15.55 7.521 15.454 7.713 15.262C7.90433 15.0707 8 14.8333 8 14.55V11.55L9.175 13.3C9.275 13.45 9.4 13.5623 9.55 13.637C9.7 13.7123 9.85 13.75 10 13.75C10.1667 13.75 10.321 13.7123 10.463 13.637C10.6043 13.5623 10.725 13.45 10.825 13.3L12 11.55V14.55C12 14.8333 12.096 15.0707 12.288 15.262C12.4793 15.454 12.7167 15.55 13 15.55C13.2833 15.55 13.521 15.454 13.713 15.262C13.9043 15.0707 14 14.8333 14 14.55V9.85C14 9.48333 13.871 9.175 13.613 8.925C13.3543 8.675 13.0417 8.55 12.675 8.55C12.4917 8.55 12.296 8.60833 12.088 8.725C11.8793 8.84167 11.725 8.975 11.625 9.125L10 11.55L8.375 9.125C8.275 8.975 8.121 8.84167 7.913 8.725C7.70433 8.60833 7.5 8.55 7.3 8.55C6.93333 8.55 6.625 8.675 6.375 8.925C6.125 9.175 6 9.48333 6 9.85V14.55C6 14.8333 6.096 15.0707 6.288 15.262C6.47933 15.454 6.71667 15.55 7 15.55Z" fill="white"/>
</svg>
