<svg width="20" height="18" viewBox="0 0 20 18" fill="none" xmlns="http://www.w3.org/2000/svg">
<path d="M3.40909 17.5455C2.72727 17.5455 2.2197 17.3182 1.88636 16.8636C1.55303 16.4091 1.45455 15.8333 1.59091 15.1364C1.75758 14.3636 1.87121 13.5909 1.93182 12.8182C1.99242 12.0455 2.0303 11.2727 2.04545 10.5C1.45455 10.2727 0.965758 9.89394 0.579091 9.36364C0.19303 8.83333 0 8.22727 0 7.54545V6.90909C0 6.57576 0.11 6.25758 0.33 5.95455C0.549394 5.65152 0.810606 5.43939 1.11364 5.31818C2.79545 4.63636 4.31424 3.81061 5.67 2.84091C7.02636 1.87121 8.09091 1.06061 8.86364 0.409091C9.0303 0.272727 9.20849 0.170303 9.39818 0.101818C9.58727 0.0339394 9.78788 0 10 0C10.2121 0 10.413 0.0339394 10.6027 0.101818C10.7918 0.170303 10.9697 0.272727 11.1364 0.409091C11.9091 1.06061 12.9733 1.87121 14.3291 2.84091C15.6855 3.81061 17.2045 4.63636 18.8864 5.31818C19.1894 5.43939 19.4509 5.65152 19.6709 5.95455C19.8903 6.25758 20 6.57576 20 6.90909V7.54545C20 8.22727 19.807 8.83333 19.4209 9.36364C19.0342 9.89394 18.5455 10.2727 17.9545 10.5C17.9697 11.2727 18.0076 12.0455 18.0682 12.8182C18.1288 13.5909 18.2424 14.3636 18.4091 15.1364C18.5455 15.8333 18.447 16.4091 18.1136 16.8636C17.7803 17.3182 17.2727 17.5455 16.5909 17.5455H3.40909ZM4.45455 5.72727H15.5455C14.3636 5.06061 13.2994 4.37485 12.3527 3.67C11.4055 2.96576 10.6212 2.34848 10 1.81818C9.37879 2.34848 8.59485 2.96576 7.64818 3.67C6.70091 4.37485 5.63636 5.06061 4.45455 5.72727ZM12.2727 8.90909C12.6515 8.90909 12.9733 8.77636 13.2382 8.51091C13.5036 8.24606 13.6364 7.92424 13.6364 7.54545H10.9091C10.9091 7.92424 11.0418 8.24606 11.3073 8.51091C11.5721 8.77636 11.8939 8.90909 12.2727 8.90909ZM7.72727 8.90909C8.10606 8.90909 8.42788 8.77636 8.69273 8.51091C8.95818 8.24606 9.09091 7.92424 9.09091 7.54545H6.36364C6.36364 7.92424 6.49636 8.24606 6.76182 8.51091C7.02667 8.77636 7.34849 8.90909 7.72727 8.90909ZM3.18182 8.90909C3.56061 8.90909 3.88242 8.77636 4.14727 8.51091C4.41273 8.24606 4.54545 7.92424 4.54545 7.54545H1.81818C1.81818 7.92424 1.95091 8.24606 2.21636 8.51091C2.48121 8.77636 2.80303 8.90909 3.18182 8.90909ZM3.31818 15.7273H5.75C5.88636 14.8182 5.99242 13.9167 6.06818 13.0227C6.14394 12.1288 6.20455 11.2273 6.25 10.3182C6.11364 10.2424 5.97727 10.1627 5.84091 10.0791C5.70455 9.99606 5.57576 9.89394 5.45455 9.77273C5.22727 10 4.98121 10.1855 4.71636 10.3291C4.45091 10.4733 4.16667 10.5833 3.86364 10.6591C3.83333 11.5227 3.7803 12.3752 3.70455 13.2164C3.62879 14.057 3.5 14.8939 3.31818 15.7273ZM7.59091 15.7273H12.4091C12.2879 14.8939 12.1933 14.0606 12.1255 13.2273C12.057 12.3939 12 11.553 11.9545 10.7045C11.5606 10.6742 11.2009 10.5794 10.8755 10.42C10.5494 10.2612 10.2576 10.053 10 9.79546C9.74242 10.053 9.44333 10.2612 9.10273 10.42C8.76151 10.5794 8.40909 10.6742 8.04546 10.7045C8 11.553 7.94333 12.3939 7.87545 13.2273C7.80697 14.0606 7.71212 14.8939 7.59091 15.7273ZM14.25 15.7273H16.6818C16.5 14.8939 16.3712 14.057 16.2955 13.2164C16.2197 12.3752 16.1667 11.5227 16.1364 10.6591C15.8333 10.5833 15.5455 10.4733 15.2727 10.3291C15 10.1855 14.7576 10 14.5455 9.77273C14.4242 9.89394 14.2955 9.99606 14.1591 10.0791C14.0227 10.1627 13.8864 10.2424 13.75 10.3182C13.7955 11.2273 13.8597 12.1288 13.9427 13.0227C14.0264 13.9167 14.1288 14.8182 14.25 15.7273ZM16.8182 8.90909C17.197 8.90909 17.5188 8.77636 17.7836 8.51091C18.0491 8.24606 18.1818 7.92424 18.1818 7.54545H15.4545C15.4545 7.92424 15.5873 8.24606 15.8527 8.51091C16.1176 8.77636 16.4394 8.90909 16.8182 8.90909Z" fill="white"/>
</svg>
